<mxfile host="app.diagrams.net" modified="2024-07-09T05:14:08.646Z" agent="Mozilla/5.0 (Macintosh; Intel Mac OS X 10_15_7) AppleWebKit/537.36 (KHTML, like Gecko) Chrome/126.0.0.0 Safari/537.36" etag="oZAk7K3Y-L-f_1Y1EilJ" version="24.6.4" type="github">
  <diagram name="Page-1" id="9JSg5hkxb4Jkv8d5Q3OM">
    <mxGraphModel dx="1878" dy="1057" grid="1" gridSize="10" guides="1" tooltips="1" connect="1" arrows="1" fold="1" page="1" pageScale="1" pageWidth="850" pageHeight="1100" math="0" shadow="0">
      <root>
        <mxCell id="0" />
        <mxCell id="1" parent="0" />
        <mxCell id="TddfoaQXzV4HAu44nRfr-1" value="Recruiting App" style="swimlane;childLayout=stackLayout;resizeParent=1;resizeParentMax=0;startSize=20;html=1;" vertex="1" parent="1">
          <mxGeometry x="180" y="110" width="1200" height="890" as="geometry" />
        </mxCell>
        <mxCell id="TddfoaQXzV4HAu44nRfr-2" value="Recruiter" style="swimlane;startSize=20;html=1;" vertex="1" parent="TddfoaQXzV4HAu44nRfr-1">
          <mxGeometry y="20" width="300" height="870" as="geometry" />
        </mxCell>
        <mxCell id="TddfoaQXzV4HAu44nRfr-37" value="" style="edgeStyle=orthogonalEdgeStyle;rounded=0;orthogonalLoop=1;jettySize=auto;html=1;" edge="1" parent="TddfoaQXzV4HAu44nRfr-2" source="TddfoaQXzV4HAu44nRfr-12" target="TddfoaQXzV4HAu44nRfr-16">
          <mxGeometry relative="1" as="geometry" />
        </mxCell>
        <mxCell id="TddfoaQXzV4HAu44nRfr-12" value="&lt;font size=&quot;3&quot;&gt;Post job details on employment websites&lt;/font&gt;" style="rounded=1;whiteSpace=wrap;html=1;" vertex="1" parent="TddfoaQXzV4HAu44nRfr-2">
          <mxGeometry x="80" y="130" width="140" height="60" as="geometry" />
        </mxCell>
        <mxCell id="TddfoaQXzV4HAu44nRfr-38" value="" style="edgeStyle=orthogonalEdgeStyle;rounded=0;orthogonalLoop=1;jettySize=auto;html=1;" edge="1" parent="TddfoaQXzV4HAu44nRfr-2" source="TddfoaQXzV4HAu44nRfr-16" target="TddfoaQXzV4HAu44nRfr-17">
          <mxGeometry relative="1" as="geometry" />
        </mxCell>
        <mxCell id="TddfoaQXzV4HAu44nRfr-16" value="&lt;font size=&quot;3&quot;&gt;Review job applications&lt;/font&gt;" style="rounded=1;whiteSpace=wrap;html=1;" vertex="1" parent="TddfoaQXzV4HAu44nRfr-2">
          <mxGeometry x="80" y="250" width="140" height="70" as="geometry" />
        </mxCell>
        <mxCell id="TddfoaQXzV4HAu44nRfr-17" value="&lt;font size=&quot;3&quot;&gt;Qualified?&lt;/font&gt;" style="rhombus;whiteSpace=wrap;html=1;" vertex="1" parent="TddfoaQXzV4HAu44nRfr-2">
          <mxGeometry x="90" y="380" width="120" height="80" as="geometry" />
        </mxCell>
        <mxCell id="TddfoaQXzV4HAu44nRfr-22" value="&lt;font size=&quot;3&quot;&gt;Send candidate profiles to Hiring Manager&lt;/font&gt;" style="rounded=1;whiteSpace=wrap;html=1;" vertex="1" parent="TddfoaQXzV4HAu44nRfr-2">
          <mxGeometry x="20" y="510" width="120" height="60" as="geometry" />
        </mxCell>
        <mxCell id="TddfoaQXzV4HAu44nRfr-23" value="&lt;font size=&quot;3&quot;&gt;Reject Candidate&lt;/font&gt;" style="rounded=1;whiteSpace=wrap;html=1;" vertex="1" parent="TddfoaQXzV4HAu44nRfr-2">
          <mxGeometry x="170" y="510" width="120" height="60" as="geometry" />
        </mxCell>
        <mxCell id="TddfoaQXzV4HAu44nRfr-3" value="Hiring Manager" style="swimlane;startSize=20;html=1;" vertex="1" parent="TddfoaQXzV4HAu44nRfr-1">
          <mxGeometry x="300" y="20" width="300" height="870" as="geometry" />
        </mxCell>
        <mxCell id="TddfoaQXzV4HAu44nRfr-10" value="&lt;font size=&quot;3&quot;&gt;Send job details to recruiter&lt;/font&gt;" style="rounded=1;whiteSpace=wrap;html=1;" vertex="1" parent="TddfoaQXzV4HAu44nRfr-3">
          <mxGeometry x="75" y="50" width="150" height="60" as="geometry" />
        </mxCell>
        <mxCell id="TddfoaQXzV4HAu44nRfr-18" value="&lt;font size=&quot;3&quot;&gt;Filter candidate profiles further&amp;nbsp;&lt;/font&gt;" style="rounded=1;whiteSpace=wrap;html=1;" vertex="1" parent="TddfoaQXzV4HAu44nRfr-3">
          <mxGeometry x="80" y="150" width="150" height="60" as="geometry" />
        </mxCell>
        <mxCell id="TddfoaQXzV4HAu44nRfr-19" value="&lt;font size=&quot;3&quot;&gt;Qualified?&lt;/font&gt;" style="rhombus;whiteSpace=wrap;html=1;" vertex="1" parent="TddfoaQXzV4HAu44nRfr-3">
          <mxGeometry x="90" y="280" width="130" height="80" as="geometry" />
        </mxCell>
        <mxCell id="TddfoaQXzV4HAu44nRfr-20" value="&lt;font size=&quot;3&quot;&gt;Schedule Interviews&lt;/font&gt;" style="rounded=1;whiteSpace=wrap;html=1;" vertex="1" parent="TddfoaQXzV4HAu44nRfr-3">
          <mxGeometry x="30" y="420" width="120" height="60" as="geometry" />
        </mxCell>
        <mxCell id="TddfoaQXzV4HAu44nRfr-21" value="&lt;font size=&quot;3&quot;&gt;Reject Candidate&lt;/font&gt;" style="rounded=1;whiteSpace=wrap;html=1;" vertex="1" parent="TddfoaQXzV4HAu44nRfr-3">
          <mxGeometry x="180" y="420" width="120" height="60" as="geometry" />
        </mxCell>
        <mxCell id="TddfoaQXzV4HAu44nRfr-27" value="&lt;font size=&quot;3&quot;&gt;Good reviews?&lt;/font&gt;" style="rhombus;whiteSpace=wrap;html=1;" vertex="1" parent="TddfoaQXzV4HAu44nRfr-3">
          <mxGeometry x="40" y="530" width="110" height="80" as="geometry" />
        </mxCell>
        <mxCell id="TddfoaQXzV4HAu44nRfr-28" value="&lt;font size=&quot;3&quot;&gt;Make job offer&lt;/font&gt;" style="rounded=1;whiteSpace=wrap;html=1;" vertex="1" parent="TddfoaQXzV4HAu44nRfr-3">
          <mxGeometry x="35" y="670" width="120" height="60" as="geometry" />
        </mxCell>
        <mxCell id="TddfoaQXzV4HAu44nRfr-29" value="&lt;font size=&quot;3&quot;&gt;Reject Candidate&lt;/font&gt;" style="rounded=1;whiteSpace=wrap;html=1;" vertex="1" parent="TddfoaQXzV4HAu44nRfr-3">
          <mxGeometry x="180" y="670" width="120" height="60" as="geometry" />
        </mxCell>
        <mxCell id="TddfoaQXzV4HAu44nRfr-4" value="Interviewer" style="swimlane;startSize=20;html=1;" vertex="1" parent="TddfoaQXzV4HAu44nRfr-1">
          <mxGeometry x="600" y="20" width="300" height="870" as="geometry" />
        </mxCell>
        <mxCell id="TddfoaQXzV4HAu44nRfr-24" value="&lt;font size=&quot;3&quot;&gt;Conduct Interviews&lt;/font&gt;" style="rounded=1;whiteSpace=wrap;html=1;" vertex="1" parent="TddfoaQXzV4HAu44nRfr-4">
          <mxGeometry x="90" y="50" width="110" height="60" as="geometry" />
        </mxCell>
        <mxCell id="TddfoaQXzV4HAu44nRfr-25" value="&lt;font size=&quot;3&quot;&gt;Post Reviews&lt;/font&gt;" style="rounded=1;whiteSpace=wrap;html=1;" vertex="1" parent="TddfoaQXzV4HAu44nRfr-4">
          <mxGeometry x="90" y="160" width="120" height="60" as="geometry" />
        </mxCell>
        <mxCell id="TddfoaQXzV4HAu44nRfr-5" value="Candidate" style="swimlane;startSize=20;html=1;" vertex="1" parent="TddfoaQXzV4HAu44nRfr-1">
          <mxGeometry x="900" y="20" width="300" height="870" as="geometry" />
        </mxCell>
        <mxCell id="TddfoaQXzV4HAu44nRfr-14" value="&lt;font size=&quot;3&quot;&gt;Apply to the job posting&lt;/font&gt;" style="rounded=1;whiteSpace=wrap;html=1;" vertex="1" parent="TddfoaQXzV4HAu44nRfr-5">
          <mxGeometry x="90" y="50" width="130" height="60" as="geometry" />
        </mxCell>
        <mxCell id="TddfoaQXzV4HAu44nRfr-30" value="&lt;font size=&quot;3&quot;&gt;Interview scheduled?&lt;/font&gt;" style="rhombus;whiteSpace=wrap;html=1;" vertex="1" parent="TddfoaQXzV4HAu44nRfr-5">
          <mxGeometry x="100" y="170" width="120" height="100" as="geometry" />
        </mxCell>
        <mxCell id="TddfoaQXzV4HAu44nRfr-31" value="&lt;font size=&quot;3&quot;&gt;Take interviews&lt;/font&gt;" style="rounded=1;whiteSpace=wrap;html=1;" vertex="1" parent="TddfoaQXzV4HAu44nRfr-5">
          <mxGeometry x="30" y="340" width="120" height="60" as="geometry" />
        </mxCell>
        <mxCell id="TddfoaQXzV4HAu44nRfr-32" value="&lt;font size=&quot;3&quot;&gt;Apply for more postings&lt;/font&gt;" style="rounded=1;whiteSpace=wrap;html=1;" vertex="1" parent="TddfoaQXzV4HAu44nRfr-5">
          <mxGeometry x="170" y="340" width="120" height="60" as="geometry" />
        </mxCell>
        <mxCell id="TddfoaQXzV4HAu44nRfr-33" value="&lt;font size=&quot;3&quot;&gt;Job offer received&lt;/font&gt;" style="rhombus;whiteSpace=wrap;html=1;" vertex="1" parent="TddfoaQXzV4HAu44nRfr-5">
          <mxGeometry x="40" y="460" width="120" height="90" as="geometry" />
        </mxCell>
        <mxCell id="TddfoaQXzV4HAu44nRfr-34" value="&lt;font size=&quot;3&quot;&gt;Accept offer&lt;/font&gt;" style="rounded=1;whiteSpace=wrap;html=1;" vertex="1" parent="TddfoaQXzV4HAu44nRfr-5">
          <mxGeometry x="40" y="610" width="120" height="60" as="geometry" />
        </mxCell>
        <mxCell id="TddfoaQXzV4HAu44nRfr-35" value="&lt;font size=&quot;3&quot;&gt;Apply some more..&lt;/font&gt;" style="rounded=1;whiteSpace=wrap;html=1;" vertex="1" parent="TddfoaQXzV4HAu44nRfr-5">
          <mxGeometry x="170" y="610" width="120" height="60" as="geometry" />
        </mxCell>
      </root>
    </mxGraphModel>
  </diagram>
</mxfile>
